<?xml version="1.0" encoding="UTF-8"?><svg xmlns="http://www.w3.org/2000/svg" xmlns:xlink="http://www.w3.org/1999/xlink" fill-opacity="1" color-rendering="auto" color-interpolation="auto" text-rendering="auto" stroke="black" stroke-linecap="square" width="352" stroke-miterlimit="10" shape-rendering="auto" stroke-opacity="1" fill="black" stroke-dasharray="none" font-weight="normal" stroke-width="1" height="158" font-family="'Dialog'" font-style="normal" stroke-linejoin="miter" font-size="12px" stroke-dashoffset="0" image-rendering="auto">
  <!--Generated by ySVG 2.5-->
  <defs id="genericDefs"/>
  <g>
    <defs id="defs1">
      <linearGradient x1="423" gradientUnits="userSpaceOnUse" x2="455" y1="228" y2="260" id="linearGradient1" spreadMethod="reflect">
        <stop stop-opacity="1" stop-color="rgb(232,238,247)" offset="0%"/>
        <stop stop-opacity="1" stop-color="rgb(183,201,227)" offset="100%"/>
      </linearGradient>
      <clipPath clipPathUnits="userSpaceOnUse" id="clipPath1">
        <path d="M0 0 L352 0 L352 158 L0 158 L0 0 Z"/>
      </clipPath>
      <clipPath clipPathUnits="userSpaceOnUse" id="clipPath2">
        <path d="M164 128 L516 128 L516 286 L164 286 L164 128 Z"/>
      </clipPath>
      <clipPath clipPathUnits="userSpaceOnUse" id="clipPath3">
        <path d="M181.7441 216.8672 L181.7441 234 L192.2559 234 L192.2559 216.8672 Z"/>
      </clipPath>
    </defs>
    <g fill="white" text-rendering="geometricPrecision" shape-rendering="geometricPrecision" transform="translate(-164,-128)" stroke="white">
      <rect x="164" width="352" height="158" y="128" clip-path="url(#clipPath2)" stroke="none"/>
    </g>
    <g stroke-linecap="butt" transform="matrix(1,0,0,1,-164,-128)" fill="rgb(102,102,153)" text-rendering="geometricPrecision" shape-rendering="geometricPrecision" stroke="rgb(102,102,153)" stroke-width="2" stroke-miterlimit="1.45">
      <circle fill="none" r="4" clip-path="url(#clipPath2)" cx="187" cy="244"/>
      <path stroke-miterlimit="10" d="M183.3379 228.4688 L186.2148 224.1152 L183.4785 219.7969 L184.9316 219.7969 L187.0176 223.0664 L189.209 219.7969 L190.3691 219.7969 L187.5977 223.9863 L190.4395 228.4688 L188.9863 228.4688 L186.7832 225.0293 L184.5039 228.4688 Z" stroke-width="1" clip-path="url(#clipPath3)" stroke-linecap="square" stroke="none"/>
    </g>
    <g fill="rgb(211,211,255)" text-rendering="geometricPrecision" shape-rendering="geometricPrecision" transform="matrix(1,0,0,1,-164,-128)" stroke="rgb(211,211,255)">
      <rect x="290" y="143.5" clip-path="url(#clipPath2)" width="53" rx="4" ry="4" height="53" stroke="none"/>
    </g>
    <g stroke-linecap="butt" transform="matrix(1,0,0,1,-164,-128)" fill="rgb(102,102,153)" text-rendering="geometricPrecision" shape-rendering="geometricPrecision" stroke="rgb(102,102,153)" stroke-miterlimit="1.45">
      <rect x="290" y="143.5" clip-path="url(#clipPath2)" fill="none" width="53" rx="4" ry="4" height="53"/>
      <text x="306.7119" y="174.5352" clip-path="url(#clipPath2)" fill="rgb(51,51,153)" font-family="sans-serif" stroke="none" xml:space="preserve">f(x)</text>
    </g>
    <g fill="rgb(204,153,255)" text-rendering="geometricPrecision" shape-rendering="geometricPrecision" transform="matrix(1,0,0,1,-164,-128)" stroke="rgb(204,153,255)">
      <rect x="290" y="217.5" clip-path="url(#clipPath2)" width="53" rx="4" ry="4" height="53" stroke="none"/>
    </g>
    <g stroke-linecap="butt" transform="matrix(1,0,0,1,-164,-128)" fill="rgb(102,102,153)" text-rendering="geometricPrecision" shape-rendering="geometricPrecision" stroke="rgb(102,102,153)" stroke-miterlimit="1.45">
      <rect x="290" y="217.5" clip-path="url(#clipPath2)" fill="none" width="53" rx="4" ry="4" height="53"/>
      <text x="305.1768" y="248.5352" clip-path="url(#clipPath2)" fill="rgb(51,51,153)" font-family="sans-serif" stroke="none" xml:space="preserve">g(x)</text>
      <circle fill="none" stroke-width="2" r="4" clip-path="url(#clipPath2)" cx="497" cy="244"/>
    </g>
    <g fill="url(#linearGradient1)" text-rendering="geometricPrecision" shape-rendering="geometricPrecision" transform="matrix(1,0,0,1,-164,-128)" stroke="url(#linearGradient1)">
      <rect x="423" width="32" height="32" y="228" clip-path="url(#clipPath2)" stroke="none"/>
    </g>
    <g text-rendering="geometricPrecision" stroke-miterlimit="1.45" shape-rendering="geometricPrecision" transform="matrix(1,0,0,1,-164,-128)" stroke-linecap="butt">
      <rect fill="none" x="423" width="32" height="32" y="228" clip-path="url(#clipPath2)"/>
      <path fill="none" d="M433 228 L433 260 M445 228 L445 260 M433 228 Z" clip-path="url(#clipPath2)"/>
    </g>
    <g stroke-linecap="butt" transform="matrix(1,0,0,1,-164,-128)" fill="rgb(102,102,153)" text-rendering="geometricPrecision" shape-rendering="geometricPrecision" stroke="rgb(102,102,153)" stroke-width="2" stroke-miterlimit="1.45">
      <path fill="none" d="M190.9911 243.7331 L206.4884 242.6965 L221.501 239.7129 L232.6713 235.3142 L240.6328 229.7656 L246.0192 223.3323 L249.4639 216.2793 L253.0625 201.375 L256.4971 187.1738 L259.7367 180.9998 L264.8359 175.7969 L272.4283 171.8303 L281.0562 169.8462 L281.1561 169.8413" clip-path="url(#clipPath2)"/>
      <path d="M290.119 169.0247 L276.1642 164.6479 L280.0358 169.9434 L277.1851 175.8515 Z" clip-path="url(#clipPath2)" stroke="none"/>
      <path fill="none" d="M191 244 L280.9967 244" clip-path="url(#clipPath2)"/>
      <path d="M289.9967 244 L276.4967 238.375 L279.8717 244 L276.4967 249.625 Z" clip-path="url(#clipPath2)" stroke="none"/>
      <path fill="none" d="M342.9897 244 L413.9785 244" clip-path="url(#clipPath2)"/>
      <path d="M422.9785 244 L409.4785 238.375 L412.8535 244 L409.4785 249.625 Z" clip-path="url(#clipPath2)" stroke="none"/>
      <path fill="none" d="M342.9741 172.3402 L347.7978 173.1797 L357.592 176.8291 L364.2887 181.5625 L368.4922 187.1631 L370.8065 193.4141 L372.1848 207 L373.2574 220.5859 L375.1897 226.8369 L378.8581 232.4375 L384.867 237.1709 L393.8206 240.8203 L406.323 243.1689 L413.9897 243.5515" clip-path="url(#clipPath2)"/>
      <path d="M422.9785 244 L409.7756 237.7092 L412.8661 243.4954 L409.215 248.9452 Z" clip-path="url(#clipPath2)" stroke="none"/>
      <path fill="none" d="M455.001 244 L484 244" clip-path="url(#clipPath2)"/>
      <path d="M493 244 L479.5 238.375 L482.875 244 L479.5 249.625 Z" clip-path="url(#clipPath2)" stroke="none"/>
    </g>
  </g>
</svg>
