<?xml version="1.0" encoding="UTF-8"?><svg xmlns="http://www.w3.org/2000/svg" xmlns:xlink="http://www.w3.org/1999/xlink" fill-opacity="1" color-rendering="auto" color-interpolation="auto" text-rendering="auto" stroke="black" stroke-linecap="square" width="178" stroke-miterlimit="10" shape-rendering="auto" stroke-opacity="1" fill="black" stroke-dasharray="none" font-weight="normal" stroke-width="1" height="306" font-family="'Dialog'" font-style="normal" stroke-linejoin="miter" font-size="12px" stroke-dashoffset="0" image-rendering="auto">
  <!--Generated by ySVG 2.5-->
  <defs id="genericDefs"/>
  <g>
    <defs id="defs1">
      <clipPath clipPathUnits="userSpaceOnUse" id="clipPath1">
        <path d="M0 0 L178 0 L178 306 L0 306 L0 0 Z"/>
      </clipPath>
      <clipPath clipPathUnits="userSpaceOnUse" id="clipPath2">
        <path d="M-90 -213 L88 -213 L88 93 L-90 93 L-90 -213 Z"/>
      </clipPath>
      <clipPath clipPathUnits="userSpaceOnUse" id="clipPath3">
        <path d="M0 0 L0 18 L20 18 L20 0 Z"/>
      </clipPath>
      <script type="text/ecmascript"><![CDATA[      var SVGDocument = null;
      var SVGRoot = null;
      var TrueCoords = null;
      var lastElement = null;
      var initialized = null;
      var tipGroup;
      function Init(evt)
      {
         SVGDocument = evt.target.ownerDocument;
         SVGRoot = SVGDocument.documentElement;
         TrueCoords = SVGRoot.createSVGPoint();
         initialized = evt;
      };
      function GetTrueCoords(evt)
      {
         var newScale = SVGRoot.currentScale;
         var translation = SVGRoot.currentTranslate;
         TrueCoords.x = (evt.clientX - translation.x)/newScale;
         TrueCoords.y = (evt.clientY - translation.y)/newScale;
      };
      function HideTooltip( evt )
      {
         if(initialized == null) {
           Init(evt);
         }
         if(tipGroup != null) {
           tipGroup.setAttributeNS(null, 'visibility', 'hidden');
         }
      };
      function ShowTooltip( evt )
      {
         if(initialized == null) {
           Init(evt);
         }
         GetTrueCoords( evt );
         var tipScale = 1/SVGRoot.currentScale;
         var targetElement = evt.currentTarget;
         if ( lastElement != targetElement )
         {
            var targetId = targetElement.getAttributeNS(null, 'id');
            var tipId = 'tooltip.' + targetId;
            tipGroup = SVGDocument.getElementById(tipId);
            var xPos = TrueCoords.x + (10 * tipScale);
            var yPos = TrueCoords.y + (10 * tipScale);
            tipGroup.setAttributeNS(null, 'transform', 'translate(' + xPos + ',' + yPos + ') scale(' + tipScale + ')');
            tipGroup.setAttributeNS(null, 'visibility', 'visible');
         }
      };
]]></script>
    </defs>
    <g fill="white" text-rendering="geometricPrecision" shape-rendering="geometricPrecision" transform="translate(90,213)" stroke="white">
      <rect x="-90" width="178" height="306" y="-213" clip-path="url(#clipPath2)" stroke="none"/>
    </g>
    <g onmouseout="HideTooltip(evt)" id="y.node.0" onmousemove="ShowTooltip(evt)">
      <g fill="rgb(255,204,0)" text-rendering="geometricPrecision" shape-rendering="geometricPrecision" transform="matrix(1,0,0,1,90,213)" stroke="rgb(255,204,0)">
        <rect x="35" y="35" width="30" rx="4" ry="4" height="30" stroke="none"/>
      </g>
      <g text-rendering="geometricPrecision" stroke-miterlimit="1.45" shape-rendering="geometricPrecision" transform="matrix(1,0,0,1,90,213)" stroke-linecap="butt">
        <rect x="35" y="35" fill="none" width="30" rx="4" ry="4" height="30"/>
      </g>
      <g/>
    </g>
    <g onmouseout="HideTooltip(evt)" id="y.node.1" onmousemove="ShowTooltip(evt)">
      <g fill="rgb(255,204,0)" text-rendering="geometricPrecision" shape-rendering="geometricPrecision" transform="matrix(1,0,0,1,90,213)" stroke="rgb(255,204,0)">
        <rect x="35" y="-65" width="30" rx="4" ry="4" height="30" stroke="none"/>
      </g>
      <g text-rendering="geometricPrecision" stroke-miterlimit="1.45" shape-rendering="geometricPrecision" transform="matrix(1,0,0,1,90,213)" stroke-linecap="butt">
        <rect x="35" y="-65" fill="none" width="30" rx="4" ry="4" height="30"/>
      </g>
      <g/>
    </g>
    <g onmouseout="HideTooltip(evt)" id="y.node.2" onmousemove="ShowTooltip(evt)">
      <g fill="rgb(255,204,0)" text-rendering="geometricPrecision" shape-rendering="geometricPrecision" transform="matrix(1,0,0,1,90,213)" stroke="rgb(255,204,0)">
        <rect x="35" y="-190" width="30" rx="4" ry="4" height="30" stroke="none"/>
      </g>
      <g text-rendering="geometricPrecision" stroke-miterlimit="1.45" shape-rendering="geometricPrecision" transform="matrix(1,0,0,1,90,213)" stroke-linecap="butt">
        <rect x="35" y="-190" fill="none" width="30" rx="4" ry="4" height="30"/>
      </g>
      <g/>
    </g>
    <g onmouseout="HideTooltip(evt)" id="y.node.3" onmousemove="ShowTooltip(evt)">
      <g fill="rgb(255,204,0)" text-rendering="geometricPrecision" shape-rendering="geometricPrecision" transform="matrix(1,0,0,1,90,213)" stroke="rgb(255,204,0)">
        <rect x="-65" y="35" width="30" rx="4" ry="4" height="30" stroke="none"/>
      </g>
      <g text-rendering="geometricPrecision" stroke-miterlimit="1.45" shape-rendering="geometricPrecision" transform="matrix(1,0,0,1,90,213)" stroke-linecap="butt">
        <rect x="-65" y="35" fill="none" width="30" rx="4" ry="4" height="30"/>
      </g>
      <g/>
    </g>
    <g onmouseout="HideTooltip(evt)" id="y.node.4" onmousemove="ShowTooltip(evt)">
      <g fill="rgb(255,204,0)" text-rendering="geometricPrecision" shape-rendering="geometricPrecision" transform="matrix(1,0,0,1,90,213)" stroke="rgb(255,204,0)">
        <rect x="-65" y="-65" width="30" rx="4" ry="4" height="30" stroke="none"/>
      </g>
      <g text-rendering="geometricPrecision" stroke-miterlimit="1.45" shape-rendering="geometricPrecision" transform="matrix(1,0,0,1,90,213)" stroke-linecap="butt">
        <rect x="-65" y="-65" fill="none" width="30" rx="4" ry="4" height="30"/>
      </g>
      <g/>
    </g>
    <g onmouseout="HideTooltip(evt)" id="y.node.5" onmousemove="ShowTooltip(evt)">
      <g fill="rgb(255,204,0)" text-rendering="geometricPrecision" shape-rendering="geometricPrecision" transform="matrix(1,0,0,1,90,213)" stroke="rgb(255,204,0)">
        <rect x="-65" y="-190" width="30" rx="4" ry="4" height="30" stroke="none"/>
      </g>
      <g text-rendering="geometricPrecision" stroke-miterlimit="1.45" shape-rendering="geometricPrecision" transform="matrix(1,0,0,1,90,213)" stroke-linecap="butt">
        <rect x="-65" y="-190" fill="none" width="30" rx="4" ry="4" height="30"/>
      </g>
      <g/>
    </g>
    <g id="y.edge.5">
      <g text-rendering="geometricPrecision" stroke-miterlimit="1.45" shape-rendering="geometricPrecision" transform="matrix(1,0,0,1,90,213)" stroke-linecap="butt">
        <path fill="none" d="M65 50 L68.2822 51.0742 L70.6328 53.9062 L72.5625 62.5 L70.8359 71.0938 L68.6162 73.9258 L65.5 75 L60.0078 74.8438 L57.1875 73.75 L56.9069 72.9484 L56.9044 72.8485"/>
        <path d="M55.9886 64.901 L52.3951 77.3945 L57.0189 73.8419 L62.3294 76.2498 Z" stroke="none"/>
      </g>
    </g>
    <g id="y.edge.4">
      <g text-rendering="geometricPrecision" stroke-miterlimit="1.45" shape-rendering="geometricPrecision" transform="matrix(1,0,0,1,90,213)" stroke-linecap="butt">
        <path fill="none" d="M65 -50 L68.2822 -48.9258 L70.6328 -46.0938 L72.5625 -37.5 L70.8359 -28.9062 L68.6162 -26.0742 L65.5 -25 L60.0078 -25.1562 L57.1875 -26.25 L56.9069 -27.0516 L56.9044 -27.1515"/>
        <path d="M55.9886 -35.099 L52.3951 -22.6055 L57.0189 -26.1581 L62.3294 -23.7502 Z" stroke="none"/>
      </g>
    </g>
    <g id="y.edge.3">
      <g text-rendering="geometricPrecision" stroke-miterlimit="1.45" shape-rendering="geometricPrecision" transform="matrix(1,0,0,1,90,213)" stroke-linecap="butt">
        <path fill="none" d="M65 -175 L68.2822 -173.9258 L70.6328 -171.0938 L72.5625 -162.5 L70.8359 -153.9062 L68.6162 -151.0742 L65.5 -150 L60.0078 -150.1562 L57.1875 -151.25 L56.9069 -152.0516 L56.9044 -152.1515"/>
        <path d="M55.9886 -160.099 L52.3951 -147.6055 L57.0189 -151.1581 L62.3294 -148.7502 Z" stroke="none"/>
      </g>
    </g>
    <g id="y.edge.2">
      <g text-rendering="geometricPrecision" stroke-miterlimit="1.45" shape-rendering="geometricPrecision" transform="matrix(1,0,0,1,90,213)" stroke-linecap="butt">
        <path fill="none" d="M-35 59 L-31.7236 59.6875 L-29.4141 61.5 L-27.8125 67 L-28.5791 69.9375 L-30.4297 72.5 L-33.3936 74.3125 L-37.5 75 L-44.7266 74.8438 L-48.4375 73.75 L-48.823 72.9129 L-48.8264 72.813"/>
        <path d="M-50.0148 64.9018 L-53.1767 77.5114 L-48.6778 73.8019 L-43.2876 76.0259 Z" stroke="none"/>
      </g>
    </g>
    <g id="y.edge.14">
      <g text-rendering="geometricPrecision" stroke-miterlimit="1.45" shape-rendering="geometricPrecision" transform="matrix(1,0,0,1,90,213)" stroke-linecap="butt">
        <path fill="none" d="M-35 53 L34.9658 53"/>
      </g>
    </g>
    <g id="y.edge.13">
      <g text-rendering="geometricPrecision" stroke-miterlimit="1.45" shape-rendering="geometricPrecision" transform="matrix(1,0,0,1,90,213)" stroke-linecap="butt">
        <path fill="none" d="M-35 47 L-21.7803 46.251 L-10.5703 43.9609 L-1.2939 40.0654 L6.125 34.5 L11.7627 27.2002 L15.6953 18.1016 L17.999 7.1396 L18.75 -5.75 L19.6016 -27.8047 L22.375 -40.25 L24.585 -43.7041 L27.3984 -45.7578 L34.9703 -46.9951"/>
      </g>
    </g>
    <g id="y.edge.12">
      <g text-rendering="geometricPrecision" stroke-miterlimit="1.45" shape-rendering="geometricPrecision" transform="matrix(1,0,0,1,90,213)" stroke-linecap="butt">
        <path fill="none" d="M-35 41 L-24.9014 40.2852 L-16.3203 37.5781 L-9.2041 32.0352 L-3.5 22.8125 L0.8447 9.0664 L3.8828 -10.0469 L5.667 -35.3711 L6.25 -67.75 L7.7891 -124.75 L9.8096 -143.1426 L12.75 -156.0625 L16.6748 -164.459 L21.6484 -169.2812 L27.7354 -171.4785 L34.9716 -171.998"/>
      </g>
    </g>
    <g id="y.edge.1">
      <g text-rendering="geometricPrecision" stroke-miterlimit="1.45" shape-rendering="geometricPrecision" transform="matrix(1,0,0,1,90,213)" stroke-linecap="butt">
        <path fill="none" d="M-35 -41 L-31.7178 -40.3125 L-29.3672 -38.5 L-27.4375 -33 L-29.1641 -27.5 L-31.3838 -25.6875 L-34.5 -25 L-39.9922 -25.1562 L-42.8125 -26.25 L-43.0931 -27.0516 L-43.0956 -27.1515"/>
        <path d="M-44.0114 -35.099 L-47.6049 -22.6055 L-42.9811 -26.1581 L-37.6706 -23.7502 Z" stroke="none"/>
      </g>
    </g>
    <g id="y.edge.11">
      <g text-rendering="geometricPrecision" stroke-miterlimit="1.45" shape-rendering="geometricPrecision" transform="matrix(1,0,0,1,90,213)" stroke-linecap="butt">
        <path fill="none" d="M-56 -35 L-55.3418 -23.1973 L-53.2656 -13.2344 L-49.6191 -5.0293 L-44.25 1.5 L-37.0059 6.4355 L-27.7344 9.8594 L-16.2832 11.8535 L-2.5 12.5 L21.6406 13.7656 L29.791 15.4004 L35.75 17.75 L39.834 20.8496 L42.3594 24.7344 L43.6426 29.4395 L43.9972 34.9566"/>
      </g>
    </g>
    <g id="y.edge.10">
      <g text-rendering="geometricPrecision" stroke-miterlimit="1.45" shape-rendering="geometricPrecision" transform="matrix(1,0,0,1,90,213)" stroke-linecap="butt">
        <path fill="none" d="M-35 -53 L34.9658 -53"/>
      </g>
    </g>
    <g id="y.edge.9">
      <g text-rendering="geometricPrecision" stroke-miterlimit="1.45" shape-rendering="geometricPrecision" transform="matrix(1,0,0,1,90,213)" stroke-linecap="butt">
        <path fill="none" d="M-35 -59 L-27.7354 -59.4297 L-21.6484 -60.9844 L-16.6748 -64.0625 L-12.75 -69.0625 L-9.8096 -76.3828 L-7.7891 -86.4219 L-6.25 -116.25 L-5.667 -133.1152 L-3.8828 -146.7812 L-0.8447 -157.541 L3.5 -165.6875 L9.2041 -171.5137 L16.3203 -175.3125 L24.9014 -177.377 L34.9606 -177.9976"/>
      </g>
    </g>
    <g id="y.edge.0">
      <g text-rendering="geometricPrecision" stroke-miterlimit="1.45" shape-rendering="geometricPrecision" transform="matrix(1,0,0,1,90,213)" stroke-linecap="butt">
        <path fill="none" d="M-35 -166 L-31.7178 -165.3125 L-29.3672 -163.5 L-27.4375 -158 L-29.1641 -152.5 L-31.3838 -150.6875 L-34.5 -150 L-39.9922 -150.1562 L-42.8125 -151.25 L-43.0931 -152.0516 L-43.0956 -152.1515"/>
        <path d="M-44.0114 -160.099 L-47.6049 -147.6055 L-42.9811 -151.1581 L-37.6706 -148.7502 Z" stroke="none"/>
      </g>
    </g>
    <g id="y.edge.8">
      <g text-rendering="geometricPrecision" stroke-miterlimit="1.45" shape-rendering="geometricPrecision" transform="matrix(1,0,0,1,90,213)" stroke-linecap="butt">
        <path fill="none" d="M-65.0137 -174.9781 L-66.7599 -172.192 L-68.2979 -164.2549 L-70.7578 -135.9141 L-73.5625 -49.8125 L-74.2109 36.5703 L-73.5 76.5 L-15.5 77.625 L42.5 76.5 L43.8125 73.9375 L44 65"/>
      </g>
    </g>
    <g id="y.edge.7">
      <g text-rendering="geometricPrecision" stroke-miterlimit="1.45" shape-rendering="geometricPrecision" transform="matrix(1,0,0,1,90,213)" stroke-linecap="butt">
        <path fill="none" d="M-35 -184 L34.9658 -184"/>
      </g>
    </g>
    <g id="y.edge.6">
      <g text-rendering="geometricPrecision" stroke-miterlimit="1.45" shape-rendering="geometricPrecision" transform="matrix(1,0,0,1,90,213)" stroke-linecap="butt">
        <path fill="none" d="M-56 -160 L-55.1016 -143.6592 L-52.4219 -129.8203 L-47.9844 -118.3838 L-41.8125 -109.25 L-33.9297 -102.3193 L-24.3594 -97.4922 L-13.125 -94.6689 L-0.25 -93.75 L22.0625 -92.2109 L29.791 -90.1904 L35.5625 -87.25 L39.623 -83.3252 L42.2188 -78.3516 L43.5957 -72.2646 L43.9984 -65.0284"/>
      </g>
    </g>
    <g visibility="hidden" id="tooltip.y.node.0" pointer-events="none">
      <g fill="rgb(255,255,204)" text-rendering="geometricPrecision" font-size="11px" shape-rendering="geometricPrecision" font-family="'Lucida Grande'" stroke="rgb(255,255,204)">
        <rect x="0" width="20" height="18" y="0" clip-path="url(#clipPath3)" stroke="none"/>
        <text fill="black" x="3" xml:space="preserve" y="13" clip-path="url(#clipPath3)" stroke="none">23</text>
      </g>
    </g>
    <g visibility="hidden" id="tooltip.y.node.1" pointer-events="none">
      <g fill="rgb(255,255,204)" text-rendering="geometricPrecision" font-size="11px" shape-rendering="geometricPrecision" font-family="'Lucida Grande'" stroke="rgb(255,255,204)">
        <rect x="0" width="20" height="18" y="0" clip-path="url(#clipPath3)" stroke="none"/>
        <text fill="black" x="3" xml:space="preserve" y="13" clip-path="url(#clipPath3)" stroke="none">22</text>
      </g>
    </g>
    <g visibility="hidden" id="tooltip.y.node.2" pointer-events="none">
      <g fill="rgb(255,255,204)" text-rendering="geometricPrecision" font-size="11px" shape-rendering="geometricPrecision" font-family="'Lucida Grande'" stroke="rgb(255,255,204)">
        <rect x="0" width="20" height="18" y="0" clip-path="url(#clipPath3)" stroke="none"/>
        <text fill="black" x="3" xml:space="preserve" y="13" clip-path="url(#clipPath3)" stroke="none">21</text>
      </g>
    </g>
    <g visibility="hidden" id="tooltip.y.node.3" pointer-events="none">
      <g fill="rgb(255,255,204)" text-rendering="geometricPrecision" font-size="11px" shape-rendering="geometricPrecision" font-family="'Lucida Grande'" stroke="rgb(255,255,204)">
        <rect x="0" width="20" height="18" y="0" clip-path="url(#clipPath3)" stroke="none"/>
        <text fill="black" x="3" xml:space="preserve" y="13" clip-path="url(#clipPath3)" stroke="none">13</text>
      </g>
    </g>
    <g visibility="hidden" id="tooltip.y.node.4" pointer-events="none">
      <g fill="rgb(255,255,204)" text-rendering="geometricPrecision" font-size="11px" shape-rendering="geometricPrecision" font-family="'Lucida Grande'" stroke="rgb(255,255,204)">
        <rect x="0" width="20" height="18" y="0" clip-path="url(#clipPath3)" stroke="none"/>
        <text fill="black" x="3" xml:space="preserve" y="13" clip-path="url(#clipPath3)" stroke="none">12</text>
      </g>
    </g>
    <g visibility="hidden" id="tooltip.y.node.5" pointer-events="none">
      <g fill="rgb(255,255,204)" text-rendering="geometricPrecision" font-size="11px" shape-rendering="geometricPrecision" font-family="'Lucida Grande'" stroke="rgb(255,255,204)">
        <rect x="0" width="20" height="18" y="0" clip-path="url(#clipPath3)" stroke="none"/>
        <text fill="black" x="3" xml:space="preserve" y="13" clip-path="url(#clipPath3)" stroke="none">11</text>
      </g>
    </g>
  </g>
</svg>
