<?xml version="1.0" encoding="UTF-8"?><svg xmlns="http://www.w3.org/2000/svg" xmlns:xlink="http://www.w3.org/1999/xlink" fill-opacity="1" color-rendering="auto" color-interpolation="auto" text-rendering="auto" stroke="black" stroke-linecap="square" width="540" stroke-miterlimit="10" shape-rendering="auto" stroke-opacity="1" fill="black" stroke-dasharray="none" font-weight="normal" stroke-width="1" height="194" font-family="'Dialog'" font-style="normal" stroke-linejoin="miter" font-size="12px" stroke-dashoffset="0" image-rendering="auto">
  <!--Generated by ySVG 2.5-->
  <defs id="genericDefs"/>
  <g>
    <defs id="defs1">
      <linearGradient x1="494" gradientUnits="userSpaceOnUse" x2="531" y1="-197.75" y2="-160.25" id="linearGradient1" spreadMethod="reflect">
        <stop stop-opacity="0.902" stop-color="rgb(255,255,255)" offset="0%"/>
        <stop stop-opacity="1" stop-color="white" offset="100%"/>
      </linearGradient>
      <linearGradient x1="494" gradientUnits="userSpaceOnUse" x2="531" y1="-197.75" y2="-160.25" id="linearGradient2" spreadMethod="reflect">
        <stop stop-opacity="0.902" stop-color="rgb(255,255,255)" offset="0%"/>
        <stop stop-opacity="0.8" stop-color="rgb(212,212,212)" offset="100%"/>
      </linearGradient>
      <clipPath clipPathUnits="userSpaceOnUse" id="clipPath1">
        <path d="M0 0 L540 0 L540 194 L0 194 L0 0 Z"/>
      </clipPath>
      <clipPath clipPathUnits="userSpaceOnUse" id="clipPath2">
        <path d="M59 -339 L599 -339 L599 -145 L59 -145 L59 -339 Z"/>
      </clipPath>
      <clipPath clipPathUnits="userSpaceOnUse" id="clipPath3">
        <path d="M76.2441 -206.1328 L76.2441 -189 L86.7559 -189 L86.7559 -206.1328 Z"/>
      </clipPath>
      <clipPath clipPathUnits="userSpaceOnUse" id="clipPath4">
        <path d="M92.1719 -164.9336 L92.1719 375.0664 L-101.8281 375.0664 L-101.8281 -164.9336 L92.1719 -164.9336 Z"/>
      </clipPath>
      <clipPath clipPathUnits="userSpaceOnUse" id="clipPath5">
        <path d="M90.7539 -210.4336 L90.7539 329.5664 L-103.2461 329.5664 L-103.2461 -210.4336 L90.7539 -210.4336 Z"/>
      </clipPath>
      <clipPath clipPathUnits="userSpaceOnUse" id="clipPath6">
        <path d="M80.1309 -119.4336 L80.1309 420.5664 L-113.8691 420.5664 L-113.8691 -119.4336 L80.1309 -119.4336 Z"/>
      </clipPath>
      <clipPath clipPathUnits="userSpaceOnUse" id="clipPath7">
        <path d="M92.1719 -335.4336 L92.1719 204.5664 L-101.8281 204.5664 L-101.8281 -335.4336 L92.1719 -335.4336 Z"/>
      </clipPath>
      <clipPath clipPathUnits="userSpaceOnUse" id="clipPath8">
        <path d="M90.7539 -380.9336 L90.7539 159.0664 L-103.2461 159.0664 L-103.2461 -380.9336 L90.7539 -380.9336 Z"/>
      </clipPath>
      <clipPath clipPathUnits="userSpaceOnUse" id="clipPath9">
        <path d="M80.1309 -289.9336 L80.1309 250.0664 L-113.8691 250.0664 L-113.8691 -289.9336 L80.1309 -289.9336 Z"/>
      </clipPath>
    </defs>
    <g fill="white" text-rendering="geometricPrecision" shape-rendering="geometricPrecision" transform="translate(-59,339)" stroke="white">
      <rect x="59" width="540" height="194" y="-339" clip-path="url(#clipPath2)" stroke="none"/>
    </g>
    <g stroke-linecap="butt" transform="matrix(1,0,0,1,-59,339)" fill="rgb(102,102,153)" text-rendering="geometricPrecision" shape-rendering="geometricPrecision" stroke="rgb(102,102,153)" stroke-width="2" stroke-miterlimit="1.45">
      <circle fill="none" r="4" clip-path="url(#clipPath2)" cx="579.5" cy="-179"/>
    </g>
    <g fill="url(#linearGradient1)" text-rendering="geometricPrecision" shape-rendering="geometricPrecision" transform="matrix(1,0,0,1,-59,339)" stroke="url(#linearGradient1)">
      <path d="M512.5 -197.5 L531 -179 L512.5 -160.5 L494 -179 Z" stroke="none" clip-path="url(#clipPath2)"/>
    </g>
    <g stroke-linecap="butt" transform="matrix(1,0,0,1,-59,339)" fill="rgb(102,102,153)" text-rendering="geometricPrecision" shape-rendering="geometricPrecision" stroke="rgb(102,102,153)" stroke-width="2" stroke-miterlimit="1.45">
      <path fill="none" d="M512.5 -197.5 L531 -179 L512.5 -160.5 L494 -179 Z" clip-path="url(#clipPath2)"/>
      <path fill="url(#linearGradient2)" d="M512.5 -188.6652 L512.5 -169.3348 M502.8348 -179 L522.1652 -179" clip-path="url(#clipPath2)" stroke="none"/>
      <path fill="none" stroke-miterlimit="10" d="M512.5 -188.6652 L512.5 -169.3348 M502.8348 -179 L522.1652 -179" stroke-width="3" clip-path="url(#clipPath2)" stroke-linejoin="round"/>
    </g>
    <g stroke-linecap="butt" transform="matrix(1,0,0,1,-59,339)" fill="rgb(102,102,153)" text-rendering="geometricPrecision" shape-rendering="geometricPrecision" stroke="rgb(102,102,153)" stroke-width="2" stroke-miterlimit="1.45">
      <circle fill="none" r="4" clip-path="url(#clipPath2)" cx="81.5" cy="-179"/>
      <path stroke-miterlimit="10" d="M77.8379 -194.5312 L80.7148 -198.8848 L77.9785 -203.2031 L79.4316 -203.2031 L81.5176 -199.9336 L83.709 -203.2031 L84.8691 -203.2031 L82.0977 -199.0137 L84.9395 -194.5312 L83.4863 -194.5312 L81.2832 -197.9707 L79.0039 -194.5312 Z" stroke-width="1" clip-path="url(#clipPath3)" stroke-linecap="square" stroke="none"/>
    </g>
    <g fill="rgb(211,211,255)" text-rendering="geometricPrecision" shape-rendering="geometricPrecision" transform="matrix(1,0,0,1,-59,339)" stroke="rgb(211,211,255)">
      <rect x="218" y="-324" clip-path="url(#clipPath2)" width="30" rx="4" ry="4" height="94" stroke="none"/>
    </g>
    <g stroke-linecap="butt" transform="matrix(1,0,0,1,-59,339)" fill="rgb(102,102,153)" text-rendering="geometricPrecision" shape-rendering="geometricPrecision" stroke="rgb(102,102,153)" stroke-miterlimit="1.45">
      <rect x="218" y="-324" clip-path="url(#clipPath2)" fill="none" width="30" rx="4" ry="4" height="94"/>
    </g>
    <g stroke-linecap="butt" transform="matrix(-0,-1,1,-0,164.9336,92.1719)" fill="rgb(51,51,153)" text-rendering="geometricPrecision" font-family="sans-serif" shape-rendering="geometricPrecision" stroke="rgb(51,51,153)" stroke-miterlimit="1.45">
      <text x="2" xml:space="preserve" y="13.6016" clip-path="url(#clipPath4)" stroke="none">activation</text>
    </g>
    <g fill="rgb(204,153,255)" text-rendering="geometricPrecision" shape-rendering="geometricPrecision" transform="matrix(1,0,0,1,-59,339)" stroke="rgb(204,153,255)">
      <rect x="263.5" y="-324" clip-path="url(#clipPath2)" width="30" rx="4" ry="4" height="94" stroke="none"/>
    </g>
    <g stroke-linecap="butt" transform="matrix(1,0,0,1,-59,339)" fill="rgb(102,102,153)" text-rendering="geometricPrecision" shape-rendering="geometricPrecision" stroke="rgb(102,102,153)" stroke-miterlimit="1.45">
      <rect x="263.5" y="-324" clip-path="url(#clipPath2)" fill="none" width="30" rx="4" ry="4" height="94"/>
    </g>
    <g stroke-linecap="butt" transform="matrix(-0,-1,1,-0,210.4336,90.7539)" fill="rgb(51,51,153)" text-rendering="geometricPrecision" font-family="sans-serif" shape-rendering="geometricPrecision" stroke="rgb(51,51,153)" stroke-miterlimit="1.45">
      <text x="2" xml:space="preserve" y="13.6016" clip-path="url(#clipPath5)" stroke="none">conv 3x3</text>
    </g>
    <g fill="rgb(178,216,255)" text-rendering="geometricPrecision" shape-rendering="geometricPrecision" transform="matrix(1,0,0,1,-59,339)" stroke="rgb(178,216,255)">
      <rect x="172.5" y="-324" clip-path="url(#clipPath2)" width="30" rx="4" ry="4" height="94" stroke="none"/>
    </g>
    <g stroke-linecap="butt" transform="matrix(1,0,0,1,-59,339)" fill="rgb(102,102,153)" text-rendering="geometricPrecision" shape-rendering="geometricPrecision" stroke="rgb(102,102,153)" stroke-miterlimit="1.45">
      <rect x="172.5" y="-324" clip-path="url(#clipPath2)" fill="none" width="30" rx="4" ry="4" height="94"/>
    </g>
    <g stroke-linecap="butt" transform="matrix(-0,-1,1,-0,119.4336,80.1309)" fill="rgb(51,51,153)" text-rendering="geometricPrecision" font-family="sans-serif" shape-rendering="geometricPrecision" stroke="rgb(51,51,153)" stroke-miterlimit="1.45">
      <text x="2" xml:space="preserve" y="13.6016" clip-path="url(#clipPath6)" stroke="none">batch</text>
    </g>
    <g fill="rgb(211,211,255)" text-rendering="geometricPrecision" shape-rendering="geometricPrecision" transform="matrix(1,0,0,1,-59,339)" stroke="rgb(211,211,255)">
      <rect x="388.5" y="-324" clip-path="url(#clipPath2)" width="30" rx="4" ry="4" height="94" stroke="none"/>
    </g>
    <g stroke-linecap="butt" transform="matrix(1,0,0,1,-59,339)" fill="rgb(102,102,153)" text-rendering="geometricPrecision" shape-rendering="geometricPrecision" stroke="rgb(102,102,153)" stroke-miterlimit="1.45">
      <rect x="388.5" y="-324" clip-path="url(#clipPath2)" fill="none" width="30" rx="4" ry="4" height="94"/>
    </g>
    <g stroke-linecap="butt" transform="matrix(-0,-1,1,-0,335.4336,92.1719)" fill="rgb(51,51,153)" text-rendering="geometricPrecision" font-family="sans-serif" shape-rendering="geometricPrecision" stroke="rgb(51,51,153)" stroke-miterlimit="1.45">
      <text x="2" xml:space="preserve" y="13.6016" clip-path="url(#clipPath7)" stroke="none">activation</text>
    </g>
    <g fill="rgb(204,153,255)" text-rendering="geometricPrecision" shape-rendering="geometricPrecision" transform="matrix(1,0,0,1,-59,339)" stroke="rgb(204,153,255)">
      <rect x="434" y="-324" clip-path="url(#clipPath2)" width="30" rx="4" ry="4" height="94" stroke="none"/>
    </g>
    <g stroke-linecap="butt" transform="matrix(1,0,0,1,-59,339)" fill="rgb(102,102,153)" text-rendering="geometricPrecision" shape-rendering="geometricPrecision" stroke="rgb(102,102,153)" stroke-miterlimit="1.45">
      <rect x="434" y="-324" clip-path="url(#clipPath2)" fill="none" width="30" rx="4" ry="4" height="94"/>
    </g>
    <g stroke-linecap="butt" transform="matrix(-0,-1,1,-0,380.9336,90.7539)" fill="rgb(51,51,153)" text-rendering="geometricPrecision" font-family="sans-serif" shape-rendering="geometricPrecision" stroke="rgb(51,51,153)" stroke-miterlimit="1.45">
      <text x="2" xml:space="preserve" y="13.6016" clip-path="url(#clipPath8)" stroke="none">conv 3x3</text>
    </g>
    <g fill="rgb(178,216,255)" text-rendering="geometricPrecision" shape-rendering="geometricPrecision" transform="matrix(1,0,0,1,-59,339)" stroke="rgb(178,216,255)">
      <rect x="343" y="-324" clip-path="url(#clipPath2)" width="30" rx="4" ry="4" height="94" stroke="none"/>
    </g>
    <g stroke-linecap="butt" transform="matrix(1,0,0,1,-59,339)" fill="rgb(102,102,153)" text-rendering="geometricPrecision" shape-rendering="geometricPrecision" stroke="rgb(102,102,153)" stroke-miterlimit="1.45">
      <rect x="343" y="-324" clip-path="url(#clipPath2)" fill="none" width="30" rx="4" ry="4" height="94"/>
    </g>
    <g stroke-linecap="butt" transform="matrix(-0,-1,1,-0,289.9336,80.1309)" fill="rgb(51,51,153)" text-rendering="geometricPrecision" font-family="sans-serif" shape-rendering="geometricPrecision" stroke="rgb(51,51,153)" stroke-miterlimit="1.45">
      <text x="2" xml:space="preserve" y="13.6016" clip-path="url(#clipPath9)" stroke="none">batch</text>
    </g>
    <g stroke-linecap="butt" transform="matrix(1,0,0,1,-59,339)" fill="rgb(102,102,153)" text-rendering="geometricPrecision" shape-rendering="geometricPrecision" stroke="rgb(102,102,153)" stroke-width="2" stroke-miterlimit="1.45">
      <path fill="none" d="M530.9839 -179 L566.5 -179" clip-path="url(#clipPath2)"/>
      <path d="M575.5 -179 L562 -184.625 L565.375 -179 L562 -173.375 Z" clip-path="url(#clipPath2)" stroke="none"/>
      <path fill="none" d="M85.5 -179 L485.022 -179" clip-path="url(#clipPath2)"/>
      <path d="M494.022 -179 L480.522 -184.625 L483.897 -179 L480.522 -173.375 Z" clip-path="url(#clipPath2)" stroke="none"/>
      <path fill="none" d="M247.9741 -277 L254.5054 -277" clip-path="url(#clipPath2)"/>
      <path d="M263.5054 -277 L250.0054 -282.625 L253.3804 -277 L250.0054 -271.375 Z" clip-path="url(#clipPath2)" stroke="none"/>
      <path fill="none" d="M85.4776 -179.4228 L92.5781 -180.1775 L100.9844 -183.498 L107.1641 -188.6438 L111.5625 -195.2969 L114.625 -203.1394 L116.7969 -211.8535 L120.25 -230.625 L122.4219 -240.0466 L125.4844 -249.0684 L129.8828 -257.3723 L136.0625 -264.6406 L144.4688 -270.5554 L155.5469 -274.7988 L163.5354 -276.0674 L163.6354 -276.0671" clip-path="url(#clipPath2)"/>
      <path d="M172.5809 -277.0557 L158.5447 -281.1637 L162.5172 -275.9435 L159.7805 -269.9818 Z" clip-path="url(#clipPath2)" stroke="none"/>
      <path fill="none" d="M202.4741 -277 L209.0054 -277" clip-path="url(#clipPath2)"/>
      <path d="M218.0054 -277 L204.5054 -282.625 L207.8804 -277 L204.5054 -271.375 Z" clip-path="url(#clipPath2)" stroke="none"/>
      <path fill="none" d="M418.4741 -277 L425.0053 -277" clip-path="url(#clipPath2)"/>
      <path d="M434.0053 -277 L420.5053 -282.625 L423.8803 -277 L420.5053 -271.375 Z" clip-path="url(#clipPath2)" stroke="none"/>
      <path fill="none" d="M464.024 -276.8628 L469.96 -276.8086 L485.7109 -275.4688 L496.9971 -271.832 L501.1984 -268.7935 L504.5625 -264.75 L509.1514 -253.0742 L511.5078 -235.6562 L512.376 -211.3477 L512.3949 -206.4166" clip-path="url(#clipPath2)"/>
      <path d="M512.4294 -197.4167 L518.0026 -210.9381 L512.3906 -207.5416 L506.7527 -210.895 Z" clip-path="url(#clipPath2)" stroke="none"/>
      <path fill="none" d="M293.5227 -277 L333.9826 -277" clip-path="url(#clipPath2)"/>
      <path d="M342.9826 -277 L329.4826 -282.625 L332.8576 -277 L329.4826 -271.375 Z" clip-path="url(#clipPath2)" stroke="none"/>
      <path fill="none" d="M372.9741 -277 L379.5053 -277" clip-path="url(#clipPath2)"/>
      <path d="M388.5053 -277 L375.0053 -282.625 L378.3803 -277 L375.0053 -271.375 Z" clip-path="url(#clipPath2)" stroke="none"/>
    </g>
  </g>
</svg>
