<?xml version="1.0" encoding="UTF-8"?><svg xmlns="http://www.w3.org/2000/svg" xmlns:xlink="http://www.w3.org/1999/xlink" fill-opacity="1" color-rendering="auto" color-interpolation="auto" text-rendering="auto" stroke="black" stroke-linecap="square" width="705" stroke-miterlimit="10" shape-rendering="auto" stroke-opacity="1" fill="black" stroke-dasharray="none" font-weight="normal" stroke-width="1" height="195" font-family="'Dialog'" font-style="normal" stroke-linejoin="miter" font-size="12px" stroke-dashoffset="0" image-rendering="auto">
  <!--Generated by ySVG 2.5-->
  <defs id="genericDefs"/>
  <g>
    <defs id="defs1">
      <linearGradient x1="660" gradientUnits="userSpaceOnUse" x2="697" y1="23.25" y2="60.75" id="linearGradient1" spreadMethod="reflect">
        <stop stop-opacity="0.902" stop-color="rgb(255,255,255)" offset="0%"/>
        <stop stop-opacity="1" stop-color="white" offset="100%"/>
      </linearGradient>
      <linearGradient x1="660" gradientUnits="userSpaceOnUse" x2="697" y1="23.25" y2="60.75" id="linearGradient2" spreadMethod="reflect">
        <stop stop-opacity="0.902" stop-color="rgb(255,255,255)" offset="0%"/>
        <stop stop-opacity="0.8" stop-color="rgb(212,212,212)" offset="100%"/>
      </linearGradient>
      <clipPath clipPathUnits="userSpaceOnUse" id="clipPath1">
        <path d="M0 0 L705 0 L705 195 L0 195 L0 0 Z"/>
      </clipPath>
      <clipPath clipPathUnits="userSpaceOnUse" id="clipPath2">
        <path d="M60 -119 L765 -119 L765 76 L60 76 L60 -119 Z"/>
      </clipPath>
      <clipPath clipPathUnits="userSpaceOnUse" id="clipPath3">
        <path d="M77.2441 13.8672 L77.2441 31 L87.7559 31 L87.7559 13.8672 Z"/>
      </clipPath>
      <clipPath clipPathUnits="userSpaceOnUse" id="clipPath4">
        <path d="M92.1719 -153.9336 L92.1719 551.0664 L-102.8281 551.0664 L-102.8281 -153.9336 L92.1719 -153.9336 Z"/>
      </clipPath>
      <clipPath clipPathUnits="userSpaceOnUse" id="clipPath5">
        <path d="M90.7539 -199.4336 L90.7539 505.5664 L-104.2461 505.5664 L-104.2461 -199.4336 L90.7539 -199.4336 Z"/>
      </clipPath>
      <clipPath clipPathUnits="userSpaceOnUse" id="clipPath6">
        <path d="M80.1309 -108.4336 L80.1309 596.5664 L-114.8691 596.5664 L-114.8691 -108.4336 L80.1309 -108.4336 Z"/>
      </clipPath>
      <clipPath clipPathUnits="userSpaceOnUse" id="clipPath7">
        <path d="M92.1719 -322.9336 L92.1719 382.0664 L-102.8281 382.0664 L-102.8281 -322.9336 L92.1719 -322.9336 Z"/>
      </clipPath>
      <clipPath clipPathUnits="userSpaceOnUse" id="clipPath8">
        <path d="M90.7539 -368.4336 L90.7539 336.5664 L-104.2461 336.5664 L-104.2461 -368.4336 L90.7539 -368.4336 Z"/>
      </clipPath>
      <clipPath clipPathUnits="userSpaceOnUse" id="clipPath9">
        <path d="M80.1309 -277.4336 L80.1309 427.5664 L-114.8691 427.5664 L-114.8691 -277.4336 L80.1309 -277.4336 Z"/>
      </clipPath>
      <clipPath clipPathUnits="userSpaceOnUse" id="clipPath10">
        <path d="M92.1719 -491.9336 L92.1719 213.0664 L-102.8281 213.0664 L-102.8281 -491.9336 L92.1719 -491.9336 Z"/>
      </clipPath>
      <clipPath clipPathUnits="userSpaceOnUse" id="clipPath11">
        <path d="M90.7539 -537.4336 L90.7539 167.5664 L-104.2461 167.5664 L-104.2461 -537.4336 L90.7539 -537.4336 Z"/>
      </clipPath>
      <clipPath clipPathUnits="userSpaceOnUse" id="clipPath12">
        <path d="M80.1309 -446.4336 L80.1309 258.5664 L-114.8691 258.5664 L-114.8691 -446.4336 L80.1309 -446.4336 Z"/>
      </clipPath>
    </defs>
    <g fill="white" text-rendering="geometricPrecision" shape-rendering="geometricPrecision" transform="translate(-60,119)" stroke="white">
      <rect x="60" width="705" height="195" y="-119" clip-path="url(#clipPath2)" stroke="none"/>
    </g>
    <g stroke-linecap="butt" transform="matrix(1,0,0,1,-60,119)" fill="rgb(102,102,153)" text-rendering="geometricPrecision" shape-rendering="geometricPrecision" stroke="rgb(102,102,153)" stroke-width="2" stroke-miterlimit="1.45">
      <circle fill="none" r="4" clip-path="url(#clipPath2)" cx="745.5" cy="42"/>
    </g>
    <g fill="url(#linearGradient1)" text-rendering="geometricPrecision" shape-rendering="geometricPrecision" transform="matrix(1,0,0,1,-60,119)" stroke="url(#linearGradient1)">
      <path d="M678.5 23.5 L697 42 L678.5 60.5 L660 42 Z" stroke="none" clip-path="url(#clipPath2)"/>
    </g>
    <g stroke-linecap="butt" transform="matrix(1,0,0,1,-60,119)" fill="rgb(102,102,153)" text-rendering="geometricPrecision" shape-rendering="geometricPrecision" stroke="rgb(102,102,153)" stroke-width="2" stroke-miterlimit="1.45">
      <path fill="none" d="M678.5 23.5 L697 42 L678.5 60.5 L660 42 Z" clip-path="url(#clipPath2)"/>
      <path fill="url(#linearGradient2)" d="M678.5 32.3348 L678.5 51.6652 M668.8348 42 L688.1652 42" clip-path="url(#clipPath2)" stroke="none"/>
      <path fill="none" stroke-miterlimit="10" d="M678.5 32.3348 L678.5 51.6652 M668.8348 42 L688.1652 42" stroke-width="3" clip-path="url(#clipPath2)" stroke-linejoin="round"/>
    </g>
    <g stroke-linecap="butt" transform="matrix(1,0,0,1,-60,119)" fill="rgb(102,102,153)" text-rendering="geometricPrecision" shape-rendering="geometricPrecision" stroke="rgb(102,102,153)" stroke-width="2" stroke-miterlimit="1.45">
      <circle fill="none" r="4" clip-path="url(#clipPath2)" cx="82.5" cy="41"/>
      <path stroke-miterlimit="10" d="M78.8379 25.4688 L81.7148 21.1152 L78.9785 16.7969 L80.4316 16.7969 L82.5176 20.0664 L84.709 16.7969 L85.8691 16.7969 L83.0977 20.9863 L85.9395 25.4688 L84.4863 25.4688 L82.2832 22.0293 L80.0039 25.4688 Z" stroke-width="1" clip-path="url(#clipPath3)" stroke-linecap="square" stroke="none"/>
    </g>
    <g fill="rgb(211,211,255)" text-rendering="geometricPrecision" shape-rendering="geometricPrecision" transform="matrix(1,0,0,1,-60,119)" stroke="rgb(211,211,255)">
      <rect x="208" y="-104" clip-path="url(#clipPath2)" width="30" rx="4" ry="4" height="94" stroke="none"/>
    </g>
    <g stroke-linecap="butt" transform="matrix(1,0,0,1,-60,119)" fill="rgb(102,102,153)" text-rendering="geometricPrecision" shape-rendering="geometricPrecision" stroke="rgb(102,102,153)" stroke-miterlimit="1.45">
      <rect x="208" y="-104" clip-path="url(#clipPath2)" fill="none" width="30" rx="4" ry="4" height="94"/>
    </g>
    <g stroke-linecap="butt" transform="matrix(-0,-1,1,-0,153.9336,92.1719)" fill="rgb(51,51,153)" text-rendering="geometricPrecision" font-family="sans-serif" shape-rendering="geometricPrecision" stroke="rgb(51,51,153)" stroke-miterlimit="1.45">
      <text x="2" xml:space="preserve" y="13.6016" clip-path="url(#clipPath4)" stroke="none">activation</text>
    </g>
    <g fill="rgb(204,153,255)" text-rendering="geometricPrecision" shape-rendering="geometricPrecision" transform="matrix(1,0,0,1,-60,119)" stroke="rgb(204,153,255)">
      <rect x="253.5" y="-104" clip-path="url(#clipPath2)" width="30" rx="4" ry="4" height="94" stroke="none"/>
    </g>
    <g stroke-linecap="butt" transform="matrix(1,0,0,1,-60,119)" fill="rgb(102,102,153)" text-rendering="geometricPrecision" shape-rendering="geometricPrecision" stroke="rgb(102,102,153)" stroke-miterlimit="1.45">
      <rect x="253.5" y="-104" clip-path="url(#clipPath2)" fill="none" width="30" rx="4" ry="4" height="94"/>
    </g>
    <g stroke-linecap="butt" transform="matrix(-0,-1,1,-0,199.4336,90.7539)" fill="rgb(51,51,153)" text-rendering="geometricPrecision" font-family="sans-serif" shape-rendering="geometricPrecision" stroke="rgb(51,51,153)" stroke-miterlimit="1.45">
      <text x="2" xml:space="preserve" y="13.6016" clip-path="url(#clipPath5)" stroke="none">conv 3x3</text>
    </g>
    <g fill="rgb(178,216,255)" text-rendering="geometricPrecision" shape-rendering="geometricPrecision" transform="matrix(1,0,0,1,-60,119)" stroke="rgb(178,216,255)">
      <rect x="162.5" y="-104" clip-path="url(#clipPath2)" width="30" rx="4" ry="4" height="94" stroke="none"/>
    </g>
    <g stroke-linecap="butt" transform="matrix(1,0,0,1,-60,119)" fill="rgb(102,102,153)" text-rendering="geometricPrecision" shape-rendering="geometricPrecision" stroke="rgb(102,102,153)" stroke-miterlimit="1.45">
      <rect x="162.5" y="-104" clip-path="url(#clipPath2)" fill="none" width="30" rx="4" ry="4" height="94"/>
    </g>
    <g stroke-linecap="butt" transform="matrix(-0,-1,1,-0,108.4336,80.1309)" fill="rgb(51,51,153)" text-rendering="geometricPrecision" font-family="sans-serif" shape-rendering="geometricPrecision" stroke="rgb(51,51,153)" stroke-miterlimit="1.45">
      <text x="2" xml:space="preserve" y="13.6016" clip-path="url(#clipPath6)" stroke="none">batch</text>
    </g>
    <g fill="rgb(211,211,255)" text-rendering="geometricPrecision" shape-rendering="geometricPrecision" transform="matrix(1,0,0,1,-60,119)" stroke="rgb(211,211,255)">
      <rect x="377" y="-104" clip-path="url(#clipPath2)" width="30" rx="4" ry="4" height="94" stroke="none"/>
    </g>
    <g stroke-linecap="butt" transform="matrix(1,0,0,1,-60,119)" fill="rgb(102,102,153)" text-rendering="geometricPrecision" shape-rendering="geometricPrecision" stroke="rgb(102,102,153)" stroke-miterlimit="1.45">
      <rect x="377" y="-104" clip-path="url(#clipPath2)" fill="none" width="30" rx="4" ry="4" height="94"/>
    </g>
    <g stroke-linecap="butt" transform="matrix(-0,-1,1,-0,322.9336,92.1719)" fill="rgb(51,51,153)" text-rendering="geometricPrecision" font-family="sans-serif" shape-rendering="geometricPrecision" stroke="rgb(51,51,153)" stroke-miterlimit="1.45">
      <text x="2" xml:space="preserve" y="13.6016" clip-path="url(#clipPath7)" stroke="none">activation</text>
    </g>
    <g fill="rgb(204,153,255)" text-rendering="geometricPrecision" shape-rendering="geometricPrecision" transform="matrix(1,0,0,1,-60,119)" stroke="rgb(204,153,255)">
      <rect x="422.5" y="-90" clip-path="url(#clipPath2)" width="30" rx="4" ry="4" height="66" stroke="none"/>
    </g>
    <g stroke-linecap="butt" transform="matrix(1,0,0,1,-60,119)" fill="rgb(102,102,153)" text-rendering="geometricPrecision" shape-rendering="geometricPrecision" stroke="rgb(102,102,153)" stroke-miterlimit="1.45">
      <rect x="422.5" y="-90" clip-path="url(#clipPath2)" fill="none" width="30" rx="4" ry="4" height="66"/>
    </g>
    <g stroke-linecap="butt" transform="matrix(-0,-1,1,-0,368.4336,90.7539)" fill="rgb(51,51,153)" text-rendering="geometricPrecision" font-family="sans-serif" shape-rendering="geometricPrecision" stroke="rgb(51,51,153)" stroke-miterlimit="1.45">
      <text x="2" xml:space="preserve" y="13.6016" clip-path="url(#clipPath8)" stroke="none">conv 1x1</text>
    </g>
    <g fill="rgb(178,216,255)" text-rendering="geometricPrecision" shape-rendering="geometricPrecision" transform="matrix(1,0,0,1,-60,119)" stroke="rgb(178,216,255)">
      <rect x="331.5" y="-104" clip-path="url(#clipPath2)" width="30" rx="4" ry="4" height="94" stroke="none"/>
    </g>
    <g stroke-linecap="butt" transform="matrix(1,0,0,1,-60,119)" fill="rgb(102,102,153)" text-rendering="geometricPrecision" shape-rendering="geometricPrecision" stroke="rgb(102,102,153)" stroke-miterlimit="1.45">
      <rect x="331.5" y="-104" clip-path="url(#clipPath2)" fill="none" width="30" rx="4" ry="4" height="94"/>
    </g>
    <g stroke-linecap="butt" transform="matrix(-0,-1,1,-0,277.4336,80.1309)" fill="rgb(51,51,153)" text-rendering="geometricPrecision" font-family="sans-serif" shape-rendering="geometricPrecision" stroke="rgb(51,51,153)" stroke-miterlimit="1.45">
      <text x="2" xml:space="preserve" y="13.6016" clip-path="url(#clipPath9)" stroke="none">batch</text>
    </g>
    <g fill="rgb(211,211,255)" text-rendering="geometricPrecision" shape-rendering="geometricPrecision" transform="matrix(1,0,0,1,-60,119)" stroke="rgb(211,211,255)">
      <rect x="546" y="-104" clip-path="url(#clipPath2)" width="30" rx="4" ry="4" height="94" stroke="none"/>
    </g>
    <g stroke-linecap="butt" transform="matrix(1,0,0,1,-60,119)" fill="rgb(102,102,153)" text-rendering="geometricPrecision" shape-rendering="geometricPrecision" stroke="rgb(102,102,153)" stroke-miterlimit="1.45">
      <rect x="546" y="-104" clip-path="url(#clipPath2)" fill="none" width="30" rx="4" ry="4" height="94"/>
    </g>
    <g stroke-linecap="butt" transform="matrix(-0,-1,1,-0,491.9336,92.1719)" fill="rgb(51,51,153)" text-rendering="geometricPrecision" font-family="sans-serif" shape-rendering="geometricPrecision" stroke="rgb(51,51,153)" stroke-miterlimit="1.45">
      <text x="2" xml:space="preserve" y="13.6016" clip-path="url(#clipPath10)" stroke="none">activation</text>
    </g>
    <g fill="rgb(204,153,255)" text-rendering="geometricPrecision" shape-rendering="geometricPrecision" transform="matrix(1,0,0,1,-60,119)" stroke="rgb(204,153,255)">
      <rect x="591.5" y="-104" clip-path="url(#clipPath2)" width="30" rx="4" ry="4" height="94" stroke="none"/>
    </g>
    <g stroke-linecap="butt" transform="matrix(1,0,0,1,-60,119)" fill="rgb(102,102,153)" text-rendering="geometricPrecision" shape-rendering="geometricPrecision" stroke="rgb(102,102,153)" stroke-miterlimit="1.45">
      <rect x="591.5" y="-104" clip-path="url(#clipPath2)" fill="none" width="30" rx="4" ry="4" height="94"/>
    </g>
    <g stroke-linecap="butt" transform="matrix(-0,-1,1,-0,537.4336,90.7539)" fill="rgb(51,51,153)" text-rendering="geometricPrecision" font-family="sans-serif" shape-rendering="geometricPrecision" stroke="rgb(51,51,153)" stroke-miterlimit="1.45">
      <text x="2" xml:space="preserve" y="13.6016" clip-path="url(#clipPath11)" stroke="none">conv 3x3</text>
    </g>
    <g fill="rgb(178,216,255)" text-rendering="geometricPrecision" shape-rendering="geometricPrecision" transform="matrix(1,0,0,1,-60,119)" stroke="rgb(178,216,255)">
      <rect x="500.5" y="-104" clip-path="url(#clipPath2)" width="30" rx="4" ry="4" height="94" stroke="none"/>
    </g>
    <g stroke-linecap="butt" transform="matrix(1,0,0,1,-60,119)" fill="rgb(102,102,153)" text-rendering="geometricPrecision" shape-rendering="geometricPrecision" stroke="rgb(102,102,153)" stroke-miterlimit="1.45">
      <rect x="500.5" y="-104" clip-path="url(#clipPath2)" fill="none" width="30" rx="4" ry="4" height="94"/>
    </g>
    <g stroke-linecap="butt" transform="matrix(-0,-1,1,-0,446.4336,80.1309)" fill="rgb(51,51,153)" text-rendering="geometricPrecision" font-family="sans-serif" shape-rendering="geometricPrecision" stroke="rgb(51,51,153)" stroke-miterlimit="1.45">
      <text x="2" xml:space="preserve" y="13.6016" clip-path="url(#clipPath12)" stroke="none">batch</text>
    </g>
    <g stroke-linecap="butt" transform="matrix(1,0,0,1,-60,119)" fill="rgb(102,102,153)" text-rendering="geometricPrecision" shape-rendering="geometricPrecision" stroke="rgb(102,102,153)" stroke-width="2" stroke-miterlimit="1.45">
      <path fill="none" d="M696.9839 42 L732.5 42" clip-path="url(#clipPath2)"/>
      <path d="M741.5 42 L728 36.375 L731.375 42 L728 47.625 Z" clip-path="url(#clipPath2)" stroke="none"/>
      <path fill="none" d="M86.5 41.0067 L651.0361 41.9539" clip-path="url(#clipPath2)"/>
      <path d="M660.0361 41.969 L646.5456 36.3214 L649.9111 41.952 L646.5267 47.5714 Z" clip-path="url(#clipPath2)" stroke="none"/>
      <path fill="none" d="M237.9741 -57 L244.5054 -57" clip-path="url(#clipPath2)"/>
      <path d="M253.5054 -57 L240.0054 -62.625 L243.3804 -57 L240.0054 -51.375 Z" clip-path="url(#clipPath2)" stroke="none"/>
      <path fill="none" d="M86.4641 40.4846 L91.8103 39.7896 L98.873 36.3789 L104.0735 31.0991 L107.7969 24.2812 L112.3535 7.3555 L115.625 -11.75 L120.6934 -30.3867 L124.8645 -38.7017 L130.6406 -45.9062 L138.407 -51.6694 L148.5488 -55.6602 L153.5557 -56.3925 L153.6557 -56.3891" clip-path="url(#clipPath2)"/>
      <path d="M162.5837 -57.5245 L148.4819 -61.4014 L152.5396 -56.2471 L149.9013 -50.2413 Z" clip-path="url(#clipPath2)" stroke="none"/>
      <path fill="none" d="M192.4741 -57 L199.0054 -57" clip-path="url(#clipPath2)"/>
      <path d="M208.0054 -57 L194.5054 -62.625 L197.8804 -57 L194.5054 -51.375 Z" clip-path="url(#clipPath2)" stroke="none"/>
      <path fill="none" d="M406.9741 -57 L413.5053 -57" clip-path="url(#clipPath2)"/>
      <path d="M422.5053 -57 L409.0053 -62.625 L412.3803 -57 L409.0053 -51.375 Z" clip-path="url(#clipPath2)" stroke="none"/>
      <path fill="none" d="M283.4678 -57 L322.5114 -57" clip-path="url(#clipPath2)"/>
      <path d="M331.5114 -57 L318.0114 -62.625 L321.3864 -57 L318.0114 -51.375 Z" clip-path="url(#clipPath2)" stroke="none"/>
      <path fill="none" d="M361.4741 -57 L368.0053 -57" clip-path="url(#clipPath2)"/>
      <path d="M377.0053 -57 L363.5053 -62.625 L366.8803 -57 L363.5053 -51.375 Z" clip-path="url(#clipPath2)" stroke="none"/>
      <path fill="none" d="M575.9741 -57 L582.5054 -57" clip-path="url(#clipPath2)"/>
      <path d="M591.5054 -57 L578.0054 -62.625 L581.3804 -57 L578.0054 -51.375 Z" clip-path="url(#clipPath2)" stroke="none"/>
      <path fill="none" d="M621.5315 -56.3023 L624.0311 -56.1863 L637.4358 -54.6151 L647.5568 -51.3416 L655.2366 -45.4208 L661.3175 -35.9079 L666.6421 -21.8579 L676.1301 14.8748" clip-path="url(#clipPath2)"/>
      <path d="M678.3809 23.5888 L680.451 9.111 L675.8488 13.7855 L669.5585 11.9245 Z" clip-path="url(#clipPath2)" stroke="none"/>
      <path fill="none" d="M452.4678 -57 L491.5114 -57" clip-path="url(#clipPath2)"/>
      <path d="M500.5114 -57 L487.0114 -62.625 L490.3864 -57 L487.0114 -51.375 Z" clip-path="url(#clipPath2)" stroke="none"/>
      <path fill="none" d="M530.4741 -57 L537.0054 -57" clip-path="url(#clipPath2)"/>
      <path d="M546.0054 -57 L532.5054 -62.625 L535.8804 -57 L532.5054 -51.375 Z" clip-path="url(#clipPath2)" stroke="none"/>
    </g>
  </g>
</svg>
