<?xml version="1.0" encoding="UTF-8"?><svg xmlns="http://www.w3.org/2000/svg" xmlns:xlink="http://www.w3.org/1999/xlink" fill-opacity="1" color-rendering="auto" color-interpolation="auto" text-rendering="auto" stroke="black" stroke-linecap="square" width="321" stroke-miterlimit="10" shape-rendering="auto" stroke-opacity="1" fill="black" stroke-dasharray="none" font-weight="normal" stroke-width="1" height="158" font-family="'Dialog'" font-style="normal" stroke-linejoin="miter" font-size="12px" stroke-dashoffset="0" image-rendering="auto">
  <!--Generated by ySVG 2.5-->
  <defs id="genericDefs"/>
  <g>
    <defs id="defs1">
      <linearGradient x1="386" gradientUnits="userSpaceOnUse" x2="423" y1="-231.75" y2="-194.25" id="linearGradient1" spreadMethod="reflect">
        <stop stop-opacity="0.902" stop-color="rgb(255,255,255)" offset="0%"/>
        <stop stop-opacity="1" stop-color="white" offset="100%"/>
      </linearGradient>
      <linearGradient x1="386" gradientUnits="userSpaceOnUse" x2="423" y1="-231.75" y2="-194.25" id="linearGradient2" spreadMethod="reflect">
        <stop stop-opacity="0.902" stop-color="rgb(255,255,255)" offset="0%"/>
        <stop stop-opacity="0.8" stop-color="rgb(212,212,212)" offset="100%"/>
      </linearGradient>
      <clipPath clipPathUnits="userSpaceOnUse" id="clipPath1">
        <path d="M0 0 L321 0 L321 158 L0 158 L0 0 Z"/>
      </clipPath>
      <clipPath clipPathUnits="userSpaceOnUse" id="clipPath2">
        <path d="M167 -329 L488 -329 L488 -171 L167 -171 L167 -329 Z"/>
      </clipPath>
      <clipPath clipPathUnits="userSpaceOnUse" id="clipPath3">
        <path d="M184.2441 -240.1328 L184.2441 -223 L194.7559 -223 L194.7559 -240.1328 Z"/>
      </clipPath>
    </defs>
    <g fill="white" text-rendering="geometricPrecision" shape-rendering="geometricPrecision" transform="translate(-167,329)" stroke="white">
      <rect x="167" width="321" height="158" y="-329" clip-path="url(#clipPath2)" stroke="none"/>
    </g>
    <g fill="url(#linearGradient1)" text-rendering="geometricPrecision" shape-rendering="geometricPrecision" transform="matrix(1,0,0,1,-167,329)" stroke="url(#linearGradient1)">
      <path d="M404.5 -231.5 L423 -213 L404.5 -194.5 L386 -213 Z" stroke="none" clip-path="url(#clipPath2)"/>
    </g>
    <g stroke-linecap="butt" transform="matrix(1,0,0,1,-167,329)" fill="rgb(102,102,153)" text-rendering="geometricPrecision" shape-rendering="geometricPrecision" stroke="rgb(102,102,153)" stroke-width="2" stroke-miterlimit="1.45">
      <path fill="none" d="M404.5 -231.5 L423 -213 L404.5 -194.5 L386 -213 Z" clip-path="url(#clipPath2)"/>
      <path fill="url(#linearGradient2)" d="M404.5 -222.6652 L404.5 -203.3348 M394.8348 -213 L414.1652 -213" clip-path="url(#clipPath2)" stroke="none"/>
      <path fill="none" stroke-miterlimit="10" d="M404.5 -222.6652 L404.5 -203.3348 M394.8348 -213 L414.1652 -213" stroke-width="3" clip-path="url(#clipPath2)" stroke-linejoin="round"/>
    </g>
    <g stroke-linecap="butt" transform="matrix(1,0,0,1,-167,329)" fill="rgb(102,102,153)" text-rendering="geometricPrecision" shape-rendering="geometricPrecision" stroke="rgb(102,102,153)" stroke-width="2" stroke-miterlimit="1.45">
      <circle fill="none" r="4" clip-path="url(#clipPath2)" cx="468.5" cy="-213"/>
    </g>
    <g fill="rgb(204,153,255)" text-rendering="geometricPrecision" shape-rendering="geometricPrecision" transform="matrix(1,0,0,1,-167,329)" stroke="rgb(204,153,255)">
      <rect x="292.5" y="-239.5" clip-path="url(#clipPath2)" width="53" rx="4" ry="4" height="53" stroke="none"/>
    </g>
    <g stroke-linecap="butt" transform="matrix(1,0,0,1,-167,329)" fill="rgb(102,102,153)" text-rendering="geometricPrecision" shape-rendering="geometricPrecision" stroke="rgb(102,102,153)" stroke-miterlimit="1.45">
      <rect x="292.5" y="-239.5" clip-path="url(#clipPath2)" fill="none" width="53" rx="4" ry="4" height="53"/>
      <text x="307.6768" y="-208.4648" clip-path="url(#clipPath2)" fill="rgb(51,51,153)" font-family="sans-serif" stroke="none" xml:space="preserve">g(x)</text>
    </g>
    <g fill="rgb(211,211,255)" text-rendering="geometricPrecision" shape-rendering="geometricPrecision" transform="matrix(1,0,0,1,-167,329)" stroke="rgb(211,211,255)">
      <rect x="292.5" y="-313.5" clip-path="url(#clipPath2)" width="53" rx="4" ry="4" height="53" stroke="none"/>
    </g>
    <g stroke-linecap="butt" transform="matrix(1,0,0,1,-167,329)" fill="rgb(102,102,153)" text-rendering="geometricPrecision" shape-rendering="geometricPrecision" stroke="rgb(102,102,153)" stroke-miterlimit="1.45">
      <rect x="292.5" y="-313.5" clip-path="url(#clipPath2)" fill="none" width="53" rx="4" ry="4" height="53"/>
      <text x="309.2119" y="-282.4648" clip-path="url(#clipPath2)" fill="rgb(51,51,153)" font-family="sans-serif" stroke="none" xml:space="preserve">f(x)</text>
      <circle fill="none" stroke-width="2" r="4" clip-path="url(#clipPath2)" cx="189.5" cy="-213"/>
      <path stroke-miterlimit="10" d="M185.8379 -228.5312 L188.7148 -232.8848 L185.9785 -237.2031 L187.4316 -237.2031 L189.5176 -233.9336 L191.709 -237.2031 L192.8691 -237.2031 L190.0977 -233.0137 L192.9395 -228.5312 L191.4863 -228.5312 L189.2832 -231.9707 L187.0039 -228.5312 Z" clip-path="url(#clipPath3)" stroke-linecap="square" stroke="none"/>
      <path fill="none" d="M422.9688 -213 L455.5 -213" stroke-width="2" clip-path="url(#clipPath2)"/>
      <path d="M464.5 -213 L451 -218.625 L454.375 -213 L451 -207.375 Z" stroke-width="2" clip-path="url(#clipPath2)" stroke="none"/>
      <path fill="none" d="M345.4719 -213 L377.0173 -213" stroke-width="2" clip-path="url(#clipPath2)"/>
      <path d="M386.0173 -213 L372.5173 -218.625 L375.8923 -213 L372.5173 -207.375 Z" stroke-width="2" clip-path="url(#clipPath2)" stroke="none"/>
      <path fill="none" d="M345.4854 -286.8643 L347.2217 -286.8555 L368.4297 -285.8438 L383.626 -283.0977 L389.2828 -280.8032 L393.8125 -277.75 L397.3402 -273.8296 L399.9912 -268.9336 L403.1641 -255.7812 L404.1459 -240.3641 L404.1465 -240.2641" stroke-width="2" clip-path="url(#clipPath2)"/>
      <path d="M404.377 -231.2671 L409.6545 -244.9067 L404.1177 -241.3888 L398.4082 -244.6186 Z" stroke-width="2" clip-path="url(#clipPath2)" stroke="none"/>
      <path fill="none" d="M193.4975 -212.8591 L205.5057 -212.4358 L217.0693 -213.9238 L224.9166 -217.1726 L229.7734 -221.8906 L232.3656 -227.7864 L233.4189 -234.5684 L233.8125 -249.625 L234.6044 -257.3167 L236.7607 -264.7285 L241.0074 -271.5691 L248.0703 -277.5469 L258.6752 -282.3704 L273.5479 -285.748 L283.5523 -286.5741" stroke-width="2" clip-path="url(#clipPath2)"/>
      <path d="M292.5218 -287.3147 L278.6047 -291.8098 L282.4311 -286.4816 L279.5304 -280.5979 Z" stroke-width="2" clip-path="url(#clipPath2)" stroke="none"/>
      <path fill="none" d="M193.5 -213 L283.4967 -213" stroke-width="2" clip-path="url(#clipPath2)"/>
      <path d="M292.4967 -213 L278.9967 -218.625 L282.3717 -213 L278.9967 -207.375 Z" stroke-width="2" clip-path="url(#clipPath2)" stroke="none"/>
    </g>
  </g>
</svg>
